<svg viewBox="0 0 512 512" xmlns="http://www.w3.org/2000/svg" xmlns:xlink="http://www.w3.org/1999/xlink"><linearGradient id="a" gradientTransform="matrix(1 0 0 -1 0 -14274)" gradientUnits="userSpaceOnUse" x1="0" x2="512" y1="-14530" y2="-14530"><stop offset="0" stop-color="#31d8ff"/><stop offset="1" stop-color="#ff80ff"/></linearGradient><path d="m512 256c0 141.386719-114.613281 256-256 256s-256-114.613281-256-256 114.613281-256 256-256 256 114.613281 256 256zm0 0" fill="url(#a)"/><path d="m360.839844 309.101562c57.804687-57.808593 57.804687-151.867187 0-209.675781-57.8125-57.808593-151.871094-57.808593-209.679688 0-57.804687 57.808594-57.804687 151.867188 0 209.675781 25.09375 25.089844 57.015625 39.285157 89.839844 42.59375v44.515626h-14.789062c-8.28125 0-15 6.71875-15 15 0 8.285156 6.71875 15 15 15h14.789062v14.789062c0 8.285156 6.714844 15 15 15s15-6.714844 15-15v-14.789062h14.789062c8.28125 0 15-6.714844 15-15 0-8.28125-6.71875-15-15-15h-14.789062v-44.515626c32.824219-3.308593 64.746094-17.503906 89.839844-42.59375zm-188.464844-188.464843c46.109375-46.109375 121.140625-46.109375 167.25 0 46.109375 46.113281 46.109375 121.140625 0 167.25s-121.140625 46.109375-167.25 0-46.109375-121.136719 0-167.25zm0 0" fill="#fff"/></svg>