<?xml version="1.0" standalone="no"?>
<!DOCTYPE svg PUBLIC "-//W3C//DTD SVG 20010904//EN"
 "http://www.w3.org/TR/2001/REC-SVG-20010904/DTD/svg10.dtd">
<svg version="1.0" xmlns="http://www.w3.org/2000/svg"
 width="240.000000pt" height="120.000000pt" viewBox="0 0 240.000000 120.000000"
 preserveAspectRatio="xMidYMid meet">

<g transform="translate(0.000000,120.000000) scale(0.100000,-0.100000)"
fill="#000000" stroke="none">
<path d="M473 979 c14 -8 17 -24 17 -89 l0 -80 -35 0 -35 0 0 69 c0 61 -3 72
-22 85 -32 23 -44 20 -22 -5 17 -19 19 -37 18 -195 0 -96 3 -174 6 -174 9 0
20 79 20 145 l0 53 35 4 35 4 0 -103 c0 -62 4 -103 10 -103 6 0 10 69 10 188
0 192 -4 212 -39 212 -13 -1 -13 -2 2 -11z"/>
<path d="M1075 975 c17 -13 19 -27 18 -108 -2 -108 12 -150 23 -69 6 49 8 52
35 52 15 0 31 5 34 10 4 6 -8 10 -29 10 -36 0 -36 0 -36 44 0 47 -19 76 -48
76 -15 -1 -14 -3 3 -15z"/>
<path d="M1685 974 c19 -14 20 -27 21 -202 1 -103 2 -191 4 -197 6 -23 18 56
19 126 l1 76 43 9 42 8 -42 4 -43 3 0 79 c0 70 -2 81 -22 94 -29 20 -49 20
-23 0z"/>
<path d="M870 962 c0 -16 65 -26 87 -13 15 9 12 10 -19 11 -20 0 -43 3 -52 6
-9 3 -16 1 -16 -4z"/>
<path d="M905 911 c-47 -4 -64 -9 -51 -14 10 -4 41 -4 69 -1 l50 7 -19 -33
c-10 -18 -35 -45 -54 -61 -19 -16 -46 -38 -60 -49 l-25 -21 35 17 c19 9 47 26
62 37 l27 20 31 -27 c17 -14 41 -26 53 -26 18 1 15 4 -14 20 -57 30 -65 45
-40 76 20 26 29 66 14 62 -5 -1 -39 -4 -78 -7z"/>
<path d="M1530 870 c0 -63 -18 -106 -65 -159 -21 -23 -33 -41 -27 -41 6 0 30
22 54 48 l43 49 42 -44 c24 -25 51 -43 64 -43 19 0 18 3 -11 23 -18 12 -46 38
-61 57 -26 33 -27 38 -18 83 11 50 7 77 -11 77 -5 0 -10 -22 -10 -50z"/>
<path d="M200 879 c7 -12 10 -56 8 -105 l-3 -84 26 0 c35 0 115 28 130 46 15
19 6 18 -39 -5 -20 -10 -49 -21 -64 -25 l-28 -6 0 80 c0 79 -10 120 -31 120
-6 0 -6 -8 1 -21z"/>
<path d="M995 710 c-55 -4 -74 -8 -62 -14 10 -5 45 -5 79 -2 l60 7 -21 -29
c-23 -33 -68 -69 -126 -101 -34 -19 -36 -21 -12 -16 16 3 46 17 67 31 l39 26
38 -26 c21 -14 49 -26 63 -26 21 0 19 3 -15 19 -22 10 -46 25 -54 35 -12 15
-11 20 12 44 25 26 37 64 20 60 -5 -1 -44 -4 -88 -8z"/>
<path d="M596 634 c-4 -10 -2 -22 3 -27 14 -14 43 0 39 20 -4 24 -34 28 -42 7z"/>
<path d="M1226 634 c-4 -10 -2 -22 3 -27 14 -14 43 0 39 20 -4 24 -34 28 -42
7z"/>
</g>
</svg>
