<svg viewBox="0 0 512 512" xmlns="http://www.w3.org/2000/svg" xmlns:xlink="http://www.w3.org/1999/xlink"><linearGradient id="a" gradientTransform="matrix(1 0 0 -1 0 -14274)" gradientUnits="userSpaceOnUse" x1="0" x2="512" y1="-14530" y2="-14530"><stop offset="0" stop-color="#31d8ff"/><stop offset="1" stop-color="#ff80ff"/></linearGradient><path d="m512 256c0 141.386719-114.613281 256-256 256s-256-114.613281-256-256 114.613281-256 256-256 256 114.613281 256 256zm0 0" fill="url(#a)"/><path d="m412.722656 115.722656c-.738281-7.566406-7.332031-13.519531-14.925781-13.519531h-66.738281c-8.28125 0-15 6.714844-15 15s6.71875 15 15 15h30.527344l-85.773438 85.769531c-21.894531-17.320312-49.542969-27.675781-79.5625-27.675781-70.828125 0-128.453125 57.625-128.453125 128.453125s57.625 128.453125 128.453125 128.453125 128.453125-57.625 128.453125-128.453125c0-30.019531-10.355469-57.667969-27.679687-79.5625l85.773437-85.769531v30.523437c0 8.285156 6.714844 15 15 15s15-6.714844 15-15v-66.730468c0-.5-.027344-.996094-.074219-1.488282-.023437-.214844.046875.492188 0 0zm-216.472656 301.480469c-54.285156 0-98.453125-44.164063-98.453125-98.453125 0-54.285156 44.167969-98.453125 98.453125-98.453125s98.453125 44.167969 98.453125 98.453125c0 54.289062-44.167969 98.453125-98.453125 98.453125zm0 0" fill="#fff"/></svg>